<?xml version="1.0" standalone="no"?>
<!DOCTYPE svg PUBLIC "-//W3C//DTD SVG 20010904//EN"
 "http://www.w3.org/TR/2001/REC-SVG-20010904/DTD/svg10.dtd">
<svg version="1.0" xmlns="http://www.w3.org/2000/svg"
 width="260.000000pt" height="260.000000pt" viewBox="0 0 260.000000 260.000000"
 preserveAspectRatio="xMidYMid meet">
<metadata>
Created by potrace 1.14, written by Peter Selinger 2001-2017
</metadata>
<g transform="translate(0.000000,260.000000) scale(0.100000,-0.100000)"
fill="#000000" stroke="none">
<path d="M1058 2574 c-4 -3 -12 -7 -20 -8 -30 -6 -74 -19 -83 -25 -5 -3 -12
-6 -15 -7 -20 -3 -170 -79 -170 -86 0 -4 -5 -8 -11 -8 -9 0 -78 -44 -114 -72
-66 -52 -107 -97 -128 -141 -25 -51 -43 -102 -37 -102 2 0 -2 -9 -8 -21 -6
-11 -13 -33 -16 -48 -3 -14 -7 -34 -10 -44 -28 -93 -23 -320 10 -444 9 -35 17
-70 19 -78 5 -26 58 -143 87 -193 15 -26 28 -52 28 -57 0 -6 4 -10 8 -10 4 0
15 -12 24 -28 24 -40 67 -89 117 -136 25 -23 53 -49 63 -58 24 -24 182 -130
238 -161 25 -14 70 -39 100 -56 30 -18 63 -35 73 -38 9 -3 17 -9 17 -14 0 -5
5 -9 11 -9 23 0 180 -113 241 -173 59 -58 108 -118 108 -133 0 -3 9 -19 21
-35 11 -16 17 -29 13 -29 -3 0 0 -7 7 -17 8 -9 13 -17 11 -17 -2 -1 -1 -8 2
-16 14 -45 19 -83 20 -150 1 -41 5 -77 9 -79 8 -4 95 30 197 76 30 14 73 32
95 41 22 8 45 18 50 23 6 4 33 19 60 34 28 16 63 39 78 51 16 13 32 24 36 24
3 0 24 18 46 40 22 21 46 39 53 40 6 0 12 7 12 16 0 8 4 13 9 10 15 -10 112
112 129 162 27 80 -31 265 -116 372 -47 58 -133 139 -149 140 -7 0 -13 5 -13
10 0 6 -7 10 -15 10 -8 0 -15 3 -15 8 0 4 -9 12 -20 17 -106 54 -167 81 -235
107 -93 34 -100 37 -181 72 -117 49 -139 58 -143 56 -2 -1 -7 2 -10 7 -3 4
-46 28 -94 53 -48 25 -118 67 -155 94 -65 48 -212 191 -212 207 0 4 -6 14 -14
21 -23 23 -93 180 -105 233 -6 28 -14 68 -19 91 -5 22 -5 50 -1 62 5 14 4 22
-2 22 -6 0 -8 4 -5 8 3 5 7 32 10 60 3 29 7 56 10 60 3 5 8 23 11 40 3 17 9
41 14 54 5 13 10 28 11 33 2 6 23 40 47 78 23 37 39 67 35 67 -5 0 -11 -3 -14
-6z"/>
<path d="M1414 2415 c-132 -39 -213 -147 -209 -278 5 -141 72 -237 200 -288
76 -29 213 1 274 60 36 35 81 103 75 113 -3 4 -1 8 4 8 6 0 9 13 8 30 -1 16 3
31 8 34 6 2 2 11 -9 21 -11 9 -14 14 -7 10 8 -4 12 1 12 14 0 12 -3 21 -7 21
-5 0 -9 14 -10 31 -3 38 -36 108 -67 142 -31 33 -101 77 -124 77 -10 0 -22 3
-25 6 -12 12 -81 11 -123 -1z"/>
<path d="M450 2201 c0 -5 -14 -24 -31 -42 -40 -43 -152 -213 -175 -266 -10
-24 -21 -43 -24 -43 -4 0 -7 -6 -8 -12 -1 -7 -17 -60 -37 -116 -19 -57 -33
-108 -30 -112 3 -5 1 -11 -4 -14 -4 -3 -11 -29 -15 -58 -4 -29 -10 -69 -13
-88 -15 -95 -2 -345 22 -420 3 -10 7 -27 10 -37 4 -25 30 -111 43 -143 5 -14
11 -29 12 -35 4 -15 70 -136 92 -167 10 -14 18 -31 18 -37 0 -6 4 -11 8 -11 4
0 15 -12 24 -27 9 -16 33 -46 53 -68 20 -22 47 -51 59 -65 28 -32 162 -150
170 -150 4 0 16 -8 27 -19 11 -10 37 -27 57 -37 20 -11 39 -22 42 -26 5 -6
138 -71 150 -73 3 0 32 -11 65 -24 33 -13 69 -25 80 -27 11 -2 50 -10 86 -18
98 -22 297 -37 306 -24 2 5 12 4 22 -2 10 -5 21 -7 24 -4 2 3 31 7 63 10 33 3
60 7 62 9 2 1 5 35 7 74 10 182 -77 332 -280 487 -63 48 -71 53 -168 104 -43
23 -117 65 -165 94 -48 29 -98 59 -112 67 -14 7 -27 17 -30 20 -3 3 -27 20
-53 38 -56 38 -155 138 -195 196 -15 22 -30 42 -33 45 -10 8 -89 151 -89 160
0 5 -6 21 -14 37 -17 33 -38 84 -42 98 -1 6 -9 37 -18 70 -23 87 -27 128 -26
240 1 100 4 148 15 195 3 14 8 39 11 56 2 18 14 56 25 85 26 70 30 89 18 89
-5 0 -9 -4 -9 -9z"/>
</g>
</svg>
